<?xml version="1.0" encoding="utf-8"?>
<!-- Generator: Adobe Illustrator 24.1.3, SVG Export Plug-In . SVG Version: 6.00 Build 0)  -->
<svg version="1.1" xmlns="http://www.w3.org/2000/svg" xmlns:xlink="http://www.w3.org/1999/xlink" x="0px" y="0px"
	 viewBox="0 0 71.9 57.3" style="enable-background:new 0 0 71.9 57.3;" xml:space="preserve">
<style type="text/css">
	.st0{fill:#FFFFFF;}
</style>
<g id="voice_on">
	<g>
		<path class="st0" d="M36,0.6L14.7,17.9c0,0,0,0,0,0H3.9c-1.9,0-3.4,1.5-3.4,3.4v14.7c0,1.9,1.5,3.4,3.4,3.4h10.8c0,0,0,0,0,0
			L36,56.9V0.6z"/>
		<path class="st0" d="M44.4,50.9c21.2-7.4,21.2-36.9,0-44.3c-1.8-0.6-2.6,2.2-0.8,2.8C62,15.8,62,41.6,43.6,48
			C41.8,48.6,42.6,51.5,44.4,50.9z"/>
		<path class="st0" d="M44.5,40.1c8.7-5.4,8.7-17.3,0-22.7c-1.6-1-3.1,1.6-1.5,2.5c6.8,4.2,6.8,13.4,0,17.6
			C41.4,38.5,42.9,41.1,44.5,40.1z"/>
	</g>
</g>
</svg>
