<?xml version="1.0" encoding="utf-8"?>
<!-- Generator: Adobe Illustrator 24.1.3, SVG Export Plug-In . SVG Version: 6.00 Build 0)  -->
<svg version="1.1" xmlns="http://www.w3.org/2000/svg" xmlns:xlink="http://www.w3.org/1999/xlink" x="0px" y="0px"
	 viewBox="0 0 71.9 57.3" style="enable-background:new 0 0 71.9 57.3;" xml:space="preserve">
<style type="text/css">
	.st0{fill:#FFFFFF;}
</style>
<g id="voice_off">
	<g>
		<path class="st0" d="M36,0.6L14.7,17.9c0,0,0,0,0,0H3.9c-1.9,0-3.4,1.5-3.4,3.4v14.7c0,1.9,1.5,3.4,3.4,3.4h10.8c0,0,0,0,0,0
			L36,56.9V0.6z"/>
		<g>
			<path class="st0" d="M41.7,15.7l0.2-0.2c0.8-0.8,2.1-0.8,2.8,0l23.4,23.4c0.8,0.8,0.8,2.1,0,2.8l-0.2,0.2c-0.8,0.8-2.1,0.8-2.8,0
				L41.7,18.5C40.9,17.8,40.9,16.5,41.7,15.7z"/>
			<path class="st0" d="M41.9,41.9l-0.2-0.2c-0.8-0.8-0.8-2.1,0-2.8l23.4-23.4c0.8-0.8,2.1-0.8,2.8,0l0.2,0.2c0.8,0.8,0.8,2.1,0,2.8
				L44.7,41.9C44,42.7,42.7,42.7,41.9,41.9z"/>
		</g>
	</g>
</g>
</svg>
